<?xml version="1.0" encoding="utf-8"?>
<!-- Generator: Adobe Illustrator 22.1.0, SVG Export Plug-In . SVG Version: 6.00 Build 0)  -->
<svg version="1.1" xmlns="http://www.w3.org/2000/svg" xmlns:xlink="http://www.w3.org/1999/xlink" x="0px" y="0px"
	 viewBox="0 0 62.8 60" style="enable-background:new 0 0 62.8 60;" xml:space="preserve">
<style type="text/css">
	.st0{fill:none;stroke:#8AC43F;stroke-width:2.5;stroke-miterlimit:10;}
</style>
<g id="图层_1">
	<g id="Layer_1">
	</g>
</g>
<g id="Ebene_1">
</g>
<g id="Capa_1">
	<path class="st0" d="M32.2,1.8l8.8,17.9c5.9,0.9,11.8,1.7,17.7,2.6c0.7,0.1,1.5,0.1,2.1,0.3c1.5,0.6,0.2,1.8-0.4,2.3
		c-2.4,2.4-4.9,4.8-7.3,7.1c-2,2-4.1,4-6.1,6c1,5.9,2,11.8,3,17.7c0.1,0.7,0.4,1.4,0.3,2.1c-0.1,1.6-1.6,0.7-2.4,0.3
		c-3-1.6-6-3.2-9-4.8c-2.5-1.3-5.1-2.7-7.6-4c-5.3,2.8-10.6,5.6-15.9,8.3c-0.6,0.3-1.2,0.8-1.9,1c-1.5,0.4-1.2-1.3-1-2.2
		c0.6-3.4,1.2-6.7,1.7-10.1c0.5-2.8,1-5.6,1.5-8.5C11.5,33.8,7.2,29.7,3,25.5C2.5,25,1.8,24.6,1.5,24c-0.9-1.3,0.9-1.5,1.7-1.6
		c3.4-0.5,6.7-1,10.1-1.5c2.8-0.4,5.7-0.8,8.5-1.2c2.7-5.5,5.4-11,8.1-16.5c0.2-0.4,0.4-0.8,0.6-1.2C30.9,1.3,31.8,0.9,32.2,1.8z"/>
</g>
</svg>
