<?xml version="1.0" encoding="utf-8"?>
<!-- Generator: Adobe Illustrator 22.1.0, SVG Export Plug-In . SVG Version: 6.00 Build 0)  -->
<svg version="1.1" xmlns="http://www.w3.org/2000/svg" xmlns:xlink="http://www.w3.org/1999/xlink" x="0px" y="0px"
	 viewBox="0 0 70.7 11.7" style="enable-background:new 0 0 70.7 11.7;" xml:space="preserve">
<style type="text/css">
	.st0{fill:#E2CF20;}
</style>
<g id="图层_1">
	<g id="Layer_1">
	</g>
</g>
<g id="Ebene_1">
</g>
<g id="Capa_1">
</g>
<g id="Layer_1_1_">
	<g>
		<polygon class="st0" points="6.2,0 8.1,3.9 12.3,4.5 9.2,7.5 10,11.7 6.2,9.7 2.4,11.7 3.1,7.5 0,4.5 4.3,3.9 		"/>
		<polygon class="st0" points="20.8,0 22.7,3.9 26.9,4.5 23.8,7.5 24.6,11.7 20.8,9.7 17,11.7 17.7,7.5 14.6,4.5 18.9,3.9 		"/>
		<polygon class="st0" points="35.4,0 37.3,3.9 41.5,4.5 38.4,7.5 39.2,11.7 35.4,9.7 31.6,11.7 32.3,7.5 29.2,4.5 33.5,3.9 		"/>
		<polygon class="st0" points="50,0 51.9,3.9 56.1,4.5 53,7.5 53.8,11.7 50,9.7 46.2,11.7 46.9,7.5 43.8,4.5 48.1,3.9 		"/>
		<polygon class="st0" points="64.6,0 66.5,3.9 70.7,4.5 67.6,7.5 68.4,11.7 64.6,9.7 60.8,11.7 61.5,7.5 58.4,4.5 62.7,3.9 		"/>
	</g>
</g>
</svg>
