<?xml version="1.0" encoding="utf-8"?>
<!-- Generator: Adobe Illustrator 22.1.0, SVG Export Plug-In . SVG Version: 6.00 Build 0)  -->
<svg version="1.1" xmlns="http://www.w3.org/2000/svg" xmlns:xlink="http://www.w3.org/1999/xlink" x="0px" y="0px"
	 viewBox="0 0 60 60" style="enable-background:new 0 0 60 60;" xml:space="preserve">
<style type="text/css">
	.st0{fill:#8AC43F;}
</style>
<g id="图层_1">
	<g id="Layer_1">
	</g>
</g>
<g id="Ebene_1">
</g>
<g id="Capa_1">
	<g>
		<g>
			<g>
				<path class="st0" d="M59.9,36.9L57.2,30l2.6-6.9c0.3-0.8,0.1-1.6-0.6-2.1l-5.7-4.6l-1.2-7.3c-0.1-0.8-0.8-1.4-1.6-1.6l-7.3-1.2
					L39,0.7c-0.5-0.6-1.4-0.9-2.1-0.6L30,2.8l-6.9-2.6c-0.8-0.3-1.6-0.1-2.1,0.6l-4.6,5.7L9.1,7.6C8.3,7.7,7.7,8.3,7.6,9.1l-1.2,7.3
					L0.7,21c-0.6,0.5-0.9,1.4-0.6,2.1L2.8,30l-2.6,6.9c-0.3,0.8-0.1,1.6,0.6,2.1l5.7,4.6l1.2,7.3c0.1,0.8,0.8,1.4,1.6,1.6l7.3,1.2
					l4.6,5.7c0.5,0.6,1.4,0.9,2.1,0.6l6.9-2.6l6.9,2.6c0.8,0.3,1.6,0.1,2.1-0.6l4.6-5.7l7.3-1.2c0.8-0.1,1.4-0.8,1.6-1.6l1.2-7.3
					l5.7-4.6C59.9,38.5,60.2,37.6,59.9,36.9z M54.9,30.7l2.5,6.6l-5.5,4.5c-0.4,0.3-0.6,0.7-0.7,1.2l-1.1,7l-7,1.1
					c-0.5,0.1-0.9,0.3-1.2,0.7l-4.5,5.5l-6.6-2.5c-0.5-0.2-1-0.2-1.4,0l-6.6,2.5l-4.5-5.5c-0.3-0.4-0.7-0.6-1.2-0.7l-7-1.1l-1.1-7
					c-0.1-0.5-0.3-0.9-0.7-1.2l-5.5-4.5l2.5-6.6c0.2-0.5,0.2-1,0-1.4l-2.5-6.6l5.5-4.5c0.4-0.3,0.6-0.7,0.7-1.2l1.1-7l7-1.1
					c0.5-0.1,0.9-0.3,1.2-0.7l4.5-5.5l6.6,2.5c0.5,0.2,1,0.2,1.4,0l6.6-2.5l4.5,5.5c0.3,0.4,0.7,0.6,1.2,0.7l7,1.1l1.1,7
					c0.1,0.5,0.3,0.9,0.7,1.2l5.5,4.5l-2.5,6.6C54.7,29.7,54.7,30.3,54.9,30.7z"/>
			</g>
		</g>
		<g>
			<g>
				<path class="st0" d="M24.4,15c-5.2,0-7.5,6.7-3.6,10c3.9,3.3,10-0.3,9.1-5.3C29.5,17,27.1,15,24.4,15z M24.4,24.6
					c-2.1,0-3.9-1.8-3.9-3.9c0-2.1,1.8-3.9,3.9-3.9c2.1,0,3.9,1.8,3.9,3.9C28.3,22.8,26.5,24.6,24.4,24.6z"/>
			</g>
		</g>
		<g>
			<g>
				<path class="st0" d="M35.6,33.7c-5.2,0-7.5,6.7-3.6,10c3.9,3.3,10-0.3,9.1-5.3C40.7,35.8,38.3,33.7,35.6,33.7z M35.6,43.3
					c-2.1,0-3.9-1.8-3.9-3.9c0-2.1,1.8-3.9,3.9-3.9c2.1,0,3.9,1.8,3.9,3.9C39.6,41.5,37.8,43.3,35.6,43.3z"/>
			</g>
		</g>
		<g>
			<g>
				<path class="st0" d="M40.5,15.5c-0.9-0.6-1.4-0.1-1.7,0.3L19.6,42.7c-0.5,0.7-0.9,1.3-0.2,1.9c1,0.8,1.6-0.2,1.9-0.7l19.2-26.9
					C40.8,16.7,41.3,16.1,40.5,15.5z"/>
			</g>
		</g>
	</g>
</g>
<g id="Layer_1_1_">
</g>
</svg>
