<?xml version="1.0" encoding="utf-8"?>
<!-- Generator: Adobe Illustrator 22.1.0, SVG Export Plug-In . SVG Version: 6.00 Build 0)  -->
<svg version="1.1" xmlns="http://www.w3.org/2000/svg" xmlns:xlink="http://www.w3.org/1999/xlink" x="0px" y="0px"
	 viewBox="0 0 66.7 60" style="enable-background:new 0 0 66.7 60;" xml:space="preserve">
<style type="text/css">
	.st0{fill:#8AC43F;}
</style>
<g id="图层_1">
	<g id="Layer_1">
	</g>
</g>
<g id="Ebene_1">
</g>
<g id="Capa_1">
	<path class="st0" d="M66.6,19.1c0,0,0-0.1,0-0.1c0-0.1,0-0.1,0-0.2c0,0,0-0.1,0-0.1c0-0.1,0-0.1,0-0.2c0,0,0-0.1,0-0.1
		c0,0,0-0.1-0.1-0.1L55.4,0.5c-0.1-0.1-0.1-0.2-0.2-0.2c0,0,0,0,0,0c-0.1-0.1-0.2-0.2-0.3-0.2c0,0,0,0,0,0c0,0,0,0,0,0
		C54.7,0,54.6,0,54.4,0H12.2c-0.1,0-0.2,0-0.3,0.1c0,0,0,0,0,0c0,0,0,0,0,0c-0.1,0-0.2,0.1-0.3,0.2c0,0,0,0,0,0
		c-0.1,0.1-0.1,0.1-0.2,0.2L0.2,18.3c0,0,0,0.1-0.1,0.1c0,0,0,0.1,0,0.1c0,0.1,0,0.1,0,0.2c0,0,0,0.1,0,0.1c0,0.1,0,0.1,0,0.2
		c0,0,0,0.1,0,0.1c0,0.1,0,0.1,0,0.2c0,0,0,0.1,0.1,0.1c0,0,0,0,0,0.1c0,0,0,0.1,0.1,0.1c0,0,0,0,0,0.1l32.2,40c0,0,0,0,0,0l0,0
		c0,0,0,0,0,0c0.1,0.1,0.2,0.2,0.3,0.3c0,0,0.1,0,0.1,0c0.3,0.1,0.5,0.1,0.8,0c0.1,0,0.1-0.1,0.2-0.1c0.1-0.1,0.2-0.1,0.2-0.2
		c0,0,0,0,0.1,0l32.2-40c0,0,0,0,0-0.1c0,0,0-0.1,0.1-0.1c0,0,0,0,0-0.1c0,0,0-0.1,0.1-0.1C66.6,19.2,66.6,19.1,66.6,19.1z
		 M35.7,2.2h17.2l-5.4,14.5L35.7,2.2z M45.4,17.8H21.2L33.3,2.9L45.4,17.8z M19.1,16.8L13.8,2.2H31L19.1,16.8z M46.2,20L33.1,55.1
		L20.3,20H46.2z M54.7,3.6l8.9,14.2H49.4L54.7,3.6z M12,3.6l5.2,14.1h-14L12,3.6z M17.9,20l12,33L3.4,20H17.9z M36,53.8L48.6,20
		h14.6L36,53.8z"/>
</g>
</svg>
