<?xml version="1.0" encoding="utf-8"?>
<!-- Generator: Adobe Illustrator 22.1.0, SVG Export Plug-In . SVG Version: 6.00 Build 0)  -->
<svg version="1.1" xmlns="http://www.w3.org/2000/svg" xmlns:xlink="http://www.w3.org/1999/xlink" x="0px" y="0px"
	 viewBox="0 0 60 60" style="enable-background:new 0 0 60 60;" xml:space="preserve">
<style type="text/css">
	.st0{fill:#8AC43F;}
</style>
<g id="图层_1">
	<g id="Layer_1">
	</g>
</g>
<g id="Ebene_1">
</g>
<g id="Capa_1">
</g>
<g id="Layer_1_1_">
	<path class="st0" d="M51.1,49.1c1.5,1.5,1.1,1.3-1,1.3H8.9c-4.2,0-7.3-3.4-7.3-7V17.8c0-0.7,1.3-1.4,1.5-2.1c0.1-0.3,0-2.1,0.2-2.2
		c0.2-0.1,0.9,0.8,0.9,0.9c0.4,0.5,0.5,1.2,0.3,1.9c-0.1,0.3-0.1,0.7-0.1,1.1l0,4.1H25c0.6,0,1.2,0.2,1.7,0.7
		c1.5,1.5,0.4,2.1-1.7,2.1H4.5l0,18.6c0,2.6,2.1,4.7,4.7,4.7l38.6,0.2C48,48.8,50.6,48.7,51.1,49.1z M55.5,44l0-19.7l-28.9,0
		L50,47.9c2.4,0,5.2-2,5.5-4.4c0.1-0.5,0-0.9,0.2-1.4c0.1-0.3,0.4-0.5,0.4-0.9c0.1-0.6-0.5-1.7,0.5-1.1c2,1.2,2.1,3.3,1.2,5.3
		c-1,2.4-3.4,4-5.7,5l6.9,6.9c0.4,0.4,1.4,1.4,0.4,2.4c-0.8,0.8-1.9-0.2-2.5-0.8L0.4,2.4C0.1,2-0.4,1.4,0.6,0.4
		c0.8-0.8,1.8-0.2,2.2,0.2l9.7,9.5l38.4,0c4.7,0,7.6,2.6,7.6,7.1v26.6c-0.3,1.2-0.9,2.3-2.2,2.4C54.8,46.1,55.5,44.9,55.5,44z
		 M55.6,21.5l0-4.1c0-2.6-2.1-4.7-4.7-4.7h-36l8.7,8.9L55.6,21.5z M1.6,44.4V17.8c0-4.2,3.6-7.8,8.2-7.8l1.3,2.6
		c-4.2,0-6.6,2.1-6.6,4.7v3.1"/>
</g>
</svg>
