<?xml version="1.0" encoding="utf-8"?>
<!-- Generator: Adobe Illustrator 22.1.0, SVG Export Plug-In . SVG Version: 6.00 Build 0)  -->
<svg version="1.1" id="Layer_1" xmlns="http://www.w3.org/2000/svg" xmlns:xlink="http://www.w3.org/1999/xlink" x="0px" y="0px"
	 viewBox="0 0 35 71" enable-background="new 0 0 35 71" xml:space="preserve">
<g id="Layer_1_2_">
	<g id="Layer_1_1_">
	</g>
</g>
<g id="Isolation_Mode">
</g>
<g>
	<g>
		<path fill="#8AC43F" d="M33.386,3.332H1.615c-2.15,0-2.156-3.332,0-3.332h31.771C35.535,0,35.541,3.332,33.386,3.332z"/>
	</g>
	<g>
		<path fill="#8AC43F" d="M33.386,19.166H1.615c-2.15,0-2.156-3.332,0-3.332h31.771C35.535,15.834,35.541,19.166,33.386,19.166z"/>
	</g>
	<g>
		<path fill="#8AC43F" d="M33.386,35H1.615c-2.15,0-2.156-3.332,0-3.332h31.771C35.535,31.668,35.541,35,33.386,35z"/>
	</g>
</g>
<g>
	<g>
		<path fill="#8AC43F" d="M33.334,71c-0.427,0-0.853-0.163-1.178-0.488L0.489,38.844c-0.651-0.651-0.651-1.706,0-2.356
			c0.65-0.65,1.705-0.65,2.355,0l31.668,31.668c0.651,0.651,0.651,1.706,0,2.356C34.187,70.837,33.761,71,33.334,71z"/>
	</g>
	<g>
		<path fill="#8AC43F" d="M1.666,71c-0.427,0-0.853-0.163-1.178-0.488c-0.651-0.651-0.651-1.706,0-2.356l31.668-31.668
			c0.65-0.65,1.705-0.65,2.355,0c0.651,0.651,0.651,1.706,0,2.356L2.844,70.512C2.519,70.837,2.093,71,1.666,71z"/>
	</g>
</g>
</svg>
