<?xml version="1.0" encoding="utf-8"?>
<!-- Generator: Adobe Illustrator 22.1.0, SVG Export Plug-In . SVG Version: 6.00 Build 0)  -->
<svg version="1.1" id="Layer_1" xmlns="http://www.w3.org/2000/svg" xmlns:xlink="http://www.w3.org/1999/xlink" x="0px" y="0px"
	 viewBox="0 0 25 129" style="enable-background:new 0 0 25 129;" xml:space="preserve">
<style type="text/css">
	.st0{fill:#FFFFFF;}
	.st1{fill:#8AC43F;}
</style>
<g id="Capa_1">
</g>
<g id="Layer_1_1_">
</g>
<g>
	<path class="st0" d="M7.3,0.2l1.4,2.4C6.2,3.9,4.5,6.4,4.5,9.2h8h8c0-2.8-1.7-5.3-4.2-6.5l1.4-2.4c0,0,0.1-0.1-0.1-0.2
		c-0.1-0.1-0.2,0.1-0.2,0.1l-1.4,2.3c-1-0.5-2.2-0.7-3.5-0.7S10,2,9,2.5L7.6,0.1c0,0-0.1-0.1-0.2-0.1C7.2,0.1,7.3,0.2,7.3,0.2z
		 M8.7,4.9c0.4,0,0.8,0.3,0.8,0.8c0,0.4-0.3,0.8-0.8,0.8c-0.4,0-0.8-0.3-0.8-0.8C7.9,5.3,8.2,4.9,8.7,4.9 M16.4,4.9
		c0.4,0,0.8,0.3,0.8,0.8c0,0.4-0.3,0.8-0.8,0.8c-0.4,0-0.8-0.3-0.8-0.8C15.6,5.3,16,4.9,16.4,4.9"/>
	<path class="st0" d="M4.4,10.1v12.3c0,0.6,0.7,1.4,1.3,1.4h1.9v4.2c0,1.1,0.8,1.9,1.7,1.9c1,0,1.7-0.9,1.7-1.9v-4.2h2.8v4.2
		c0,1.1,0.8,1.9,1.7,1.9s1.7-0.9,1.7-1.9v-4.2h1.9c0.6,0,1.3-0.8,1.3-1.4V10.1H4.4z"/>
	<path class="st0" d="M1.7,9.8L1.7,9.8c1,0,1.7,0.9,1.7,1.9v7.4c0,1.1-0.8,1.9-1.7,1.9S0,20.2,0,19.1v-7.4C0,10.7,0.8,9.8,1.7,9.8"
		/>
	<path class="st0" d="M23.3,9.8L23.3,9.8c1,0,1.7,0.9,1.7,1.9v7.4c0,1.1-0.8,1.9-1.7,1.9c-1,0-1.7-0.9-1.7-1.9v-7.4
		C21.6,10.7,22.4,9.8,23.3,9.8"/>
</g>
<g>
	<path class="st1" d="M7.4,33.3l1.4,2.4c-2.5,1.3-4.2,3.7-4.2,6.5h7.9h7.9c0-2.8-1.7-5.2-4.2-6.4l1.4-2.4c0,0,0.1-0.1-0.1-0.2
		c-0.1-0.1-0.2,0.1-0.2,0.1L16,35.7c-1-0.5-2.2-0.7-3.5-0.7s-2.5,0.2-3.5,0.7l-1.4-2.4c0,0-0.1-0.1-0.2-0.1
		C7.3,33.3,7.4,33.3,7.4,33.3z M8.8,38c0.4,0,0.8,0.3,0.8,0.8c0,0.4-0.3,0.8-0.8,0.8c-0.4,0-0.8-0.3-0.8-0.8C8,38.3,8.3,38,8.8,38
		 M16.3,38c0.4,0,0.8,0.3,0.8,0.8c0,0.4-0.3,0.8-0.8,0.8c-0.4,0-0.8-0.3-0.8-0.8C15.5,38.3,15.9,38,16.3,38"/>
	<path class="st1" d="M4.5,43.2v12.2c0,0.6,0.7,1.4,1.3,1.4h1.9V61c0,1.1,0.8,1.9,1.7,1.9c1,0,1.7-0.9,1.7-1.9v-4.2h2.8V61
		c0,1.1,0.8,1.9,1.7,1.9s1.7-0.9,1.7-1.9v-4.2h1.9c0.6,0,1.3-0.8,1.3-1.4V43.2H4.5z"/>
	<path class="st1" d="M1.8,42.8L1.8,42.8c1,0,1.7,0.9,1.7,1.9V52c0,1.1-0.8,1.9-1.7,1.9S0.2,53.2,0.2,52v-7.3
		C0.2,43.8,0.9,42.8,1.8,42.8"/>
	<path class="st1" d="M23.2,42.8L23.2,42.8c1,0,1.7,0.9,1.7,1.9V52c0,1.1-0.8,1.9-1.7,1.9c-1,0-1.7-0.9-1.7-1.9v-7.3
		C21.5,43.8,22.3,42.8,23.2,42.8"/>
</g>
<g>
	<g>
		<path class="st1" d="M11.5,101.2v12.2H25V99c-0.6,0-4.1,0.7-5.1,0.8c-1.1,0.1-2.3,0.4-3.4,0.6C16.1,100.5,11.8,101.2,11.5,101.2z"
			/>
	</g>
	<g>
		<path class="st1" d="M11.5,126.7c0.3,0,1.3,0.2,1.7,0.3c1.6,0.3,3.6,0.5,5.1,0.9c0.5,0.1,1.2,0.2,1.7,0.3c0.6,0.1,1.2,0.2,1.7,0.3
			l2.5,0.4c0.3,0,0.6,0.1,0.8,0.1v-14.5H11.5V126.7z"/>
	</g>
	<g>
		<path class="st1" d="M0,103.1v10.3h10.4v-12.1c-0.4,0-8.3,1.4-9.8,1.6C0.4,103,0.3,103,0,103.1z"/>
	</g>
	<g>
		<path class="st1" d="M0,124.8c0.4,0,0.8,0.2,1.3,0.2c1.1,0.1,2.8,0.5,3.9,0.6c0.2,0,5,0.9,5.3,0.9v-12H0V124.8z"/>
	</g>
</g>
<g>
	<g>
		<path class="st0" d="M11.5,68.2v12.2H25V66c-0.6,0-4.1,0.7-5.1,0.8c-1.1,0.1-2.3,0.4-3.4,0.6C16.1,67.5,11.8,68.2,11.5,68.2z"/>
	</g>
	<g>
		<path class="st0" d="M11.5,93.7c0.3,0,1.3,0.2,1.7,0.3c1.6,0.3,3.6,0.5,5.1,0.9c0.5,0.1,1.2,0.2,1.7,0.3c0.6,0.1,1.2,0.2,1.7,0.3
			l2.5,0.4c0.3,0,0.6,0.1,0.8,0.1V81.5H11.5V93.7z"/>
	</g>
	<g>
		<path class="st0" d="M0,70.1v10.3h10.4V68.3c-0.4,0-8.3,1.4-9.8,1.6C0.4,70,0.3,70,0,70.1z"/>
	</g>
	<g>
		<path class="st0" d="M0,91.8c0.4,0,0.8,0.2,1.3,0.2c1.1,0.1,2.8,0.5,3.9,0.6c0.2,0,5,0.9,5.3,0.9v-12H0V91.8z"/>
	</g>
</g>
</svg>
