<?xml version="1.0" encoding="utf-8"?>
<!-- Generator: Adobe Illustrator 22.1.0, SVG Export Plug-In . SVG Version: 6.00 Build 0)  -->
<svg version="1.1" xmlns="http://www.w3.org/2000/svg" xmlns:xlink="http://www.w3.org/1999/xlink" x="0px" y="0px"
	 viewBox="0 0 79.2 60" style="enable-background:new 0 0 79.2 60;" xml:space="preserve">
<style type="text/css">
	.st0{fill:#8AC43F;}
</style>
<g id="图层_1">
	<g id="Layer_1">
	</g>
</g>
<g id="Ebene_1">
</g>
<g id="Capa_1">
	<g>
		<path class="st0" d="M5.7,20.3h8.9c2.3,0.1,2.3,3.1,0,3.1H5.7C3.3,23.3,3.3,20.3,5.7,20.3z"/>
		<path class="st0" d="M5.4,37.6h7.1c1.4,0.1,1.4,3,0,3.1H5.4C4.1,40.6,4.1,37.7,5.4,37.6z"/>
		<path class="st0" d="M1.5,29h13.1c1.6,0.1,1.6,3,0,3.1H1.5C-0.5,32-0.5,29.1,1.5,29z"/>
		<path class="st0" d="M49.2,0C36.7,0,25.3,8,21,19.7c-4.3,11.8-0.6,25.5,9.1,33.5c9.7,8,23.8,9.1,34.5,2.6
			c10.8-6.5,16.5-19.3,14-31.7C76.2,12,66.1,2.3,53.9,0.4C52.3,0.1,50.8,0,49.2,0z M49.2,57.2c-11.3,0-21.6-7.2-25.5-17.8
			c-4-10.7-0.6-23.1,8.2-30.4c8.8-7.3,21.6-8.2,31.3-2.3c9.7,5.9,14.8,17.5,12.6,28.6c-2.2,11-11.3,19.7-22.3,21.5
			C52.1,57.1,50.6,57.2,49.2,57.2z"/>
		<path class="st0" d="M50.2,30.3V16.4c0,0,0.1-1.9-1.6-1.9c-1.9,0-1.9,1.9-1.9,1.9c0,2.9,0,5.8,0,8.6c0,1.9,0,3.7,0,5.6
			c0,1-0.3,2.7,0.6,3.4l9.8,6.8c0,0,1,0.8,2-0.7c0.9-1.3-0.3-2.4-0.3-2.4c-1.5-1.1-3-2.3-4.4-3.4c-0.9-0.7-1.8-1.4-2.7-2.1
			C50.9,31.7,50.2,31.3,50.2,30.3z"/>
	</g>
</g>
</svg>
