<?xml version="1.0" encoding="utf-8"?>
<!-- Generator: Adobe Illustrator 22.1.0, SVG Export Plug-In . SVG Version: 6.00 Build 0)  -->
<svg version="1.1" id="Capa_1" xmlns="http://www.w3.org/2000/svg" xmlns:xlink="http://www.w3.org/1999/xlink" x="0px" y="0px"
	 viewBox="0 0 30 180" style="enable-background:new 0 0 30 180;" xml:space="preserve">
<style type="text/css">
	.st0{fill:#8AC43F;}
	.st1{fill:#FFFFFF;}
</style>
<g>
	<g>
		<path class="st0" d="M15,120c-6.3,0-12,4-14.1,9.9c-2.1,5.9-0.3,12.7,4.6,16.7c4.8,4,11.9,4.5,17.3,1.3c5.4-3.2,8.2-9.6,7-15.8
			C28.4,125.2,22.1,120,15,120z M21.7,131.6c0.1,3.2-1.3,6.4-3.9,8.3c-3.2,2.5-7.9,2.6-11.2,0.4c1.8,0.2,3.7-0.3,5.1-1.4
			c-1.5,0-2.8-1-3.2-2.4c0.5,0.1,1.1,0.1,1.6-0.1c-1.6-0.3-2.8-1.8-2.8-3.4c0.5,0.3,1,0.4,1.6,0.4c-1.5-1-2-3.1-1.1-4.6
			c1.7,2.1,4.3,3.5,7.1,3.6c-0.8-3.4,3.5-5.7,5.9-3.2c0.8-0.2,1.5-0.4,2.2-0.8c-0.3,0.8-0.8,1.5-1.5,1.9c0.7-0.1,1.4-0.3,2-0.5
			C23,130.5,22.4,131.1,21.7,131.6z"/>
	</g>
</g>
<g>
	<g>
		<path class="st0" d="M15,0C8.7,0,3,4,0.9,9.9c-2.1,5.9-0.3,12.7,4.6,16.7c4.8,4,11.9,4.5,17.3,1.3c5.4-3.2,8.2-9.6,7-15.8
			C28.4,5.2,22.1,0,15,0z M18.7,15.5h-2.4c0,3.9,0,8.7,0,8.7h-3.6c0,0,0-4.8,0-8.7h-1.7v-3.1h1.7v-2c0-1.4,0.7-3.7,3.7-3.7l2.7,0v3
			c-0.8,0-2.7-0.4-2.7,0.8v1.8H19L18.7,15.5z"/>
	</g>
</g>
<g>
	<path class="st1" d="M15,150c-6.3,0-12,4-14.1,9.9c-2.1,5.9-0.3,12.7,4.6,16.7c4.8,4,11.9,4.5,17.3,1.3c5.4-3.2,8.2-9.6,7-15.8
		C28.4,155.2,22.1,150,15,150z"/>
	<path class="st0" d="M21.7,161.6c0.1,3.2-1.3,6.4-3.9,8.3c-3.2,2.5-7.9,2.6-11.2,0.4c1.8,0.2,3.7-0.3,5.1-1.4c-1.5,0-2.8-1-3.2-2.4
		c0.5,0.1,1.1,0.1,1.6-0.1c-1.6-0.3-2.8-1.8-2.8-3.4c0.5,0.3,1,0.4,1.6,0.4c-1.5-1-2-3.1-1.1-4.6c1.7,2.1,4.3,3.5,7.1,3.6
		c-0.8-3.4,3.5-5.7,5.9-3.2c0.8-0.2,1.5-0.4,2.2-0.8c-0.3,0.8-0.8,1.5-1.5,1.9c0.7-0.1,1.4-0.3,2-0.5
		C23,160.5,22.4,161.1,21.7,161.6z"/>
</g>
<g>
	<path class="st1" d="M15,30c-6.3,0-12,4-14.1,9.9c-2.1,5.9-0.3,12.7,4.6,16.7c4.8,4,11.9,4.5,17.3,1.3c5.4-3.2,8.2-9.6,7-15.8
		C28.4,35.2,22.1,30,15,30z"/>
	<path class="st0" d="M18.7,45h-2.4c0,3.9,0,8.7,0,8.7h-3.6c0,0,0-4.8,0-8.7H11v-3.1h1.7v-2c0-1.4,0.7-3.7,3.7-3.7l2.7,0v3
		c-0.8,0-2.7-0.4-2.7,0.8v1.8H19L18.7,45z"/>
</g>
<g>
	<g>
		<g>
			<path class="st0" d="M15,78c2.4,0,3.8-2.8,2.4-4.8c-1.2-1.6-3.7-1.6-4.9,0C12.2,73.8,12,74.4,12,75C12,76.7,13.3,78,15,78z"/>
			<polygon class="st0" points="21.6,71.4 21.6,68.8 21.6,68.5 21.2,68.5 18.7,68.5 18.7,71.4 			"/>
			<path class="st0" d="M15,60c-6,0-11.6,3.8-13.9,9.3C-1.3,75.1,0.3,82.1,5,86.2c4.8,4.3,12.2,5,17.8,1.7c5.3-3.2,8.2-9.7,7-15.8
				C28.3,65.2,22,60,15,60z M23.5,73.3v7c0,1.8-1.5,3.3-3.3,3.3H9.7c-1.8,0-3.3-1.5-3.3-3.3v-7v-3.5c0-1.8,1.5-3.3,3.3-3.3h10.5
				c1.8,0,3.3,1.5,3.3,3.3V73.3z"/>
			<path class="st0" d="M19.7,75c0,3-2.9,5.3-5.8,4.5c-2.7-0.7-4.2-3.7-3.2-6.3H8.1v7c0,0.9,0.7,1.6,1.6,1.6h10.5
				c0.9,0,1.6-0.7,1.6-1.6v-7h-2.6C19.5,73.8,19.7,74.4,19.7,75z"/>
		</g>
	</g>
</g>
<g>
	<path class="st1" d="M15,90c-6,0-11.6,3.8-13.9,9.3c-2.4,5.8-0.8,12.7,3.9,16.9c4.8,4.3,12.2,5,17.8,1.7c5.3-3.2,8.2-9.7,7-15.8
		C28.3,95.2,22,90,15,90z"/>
	<path class="st0" d="M23.5,103.3v7c0,1.8-1.5,3.3-3.3,3.3H9.7c-1.8,0-3.3-1.5-3.3-3.3v-7v-3.5c0-1.8,1.5-3.3,3.3-3.3h10.5
		c1.8,0,3.3,1.5,3.3,3.3V103.3z"/>
	<path class="st1" d="M19.7,105c0,3-2.9,5.3-5.8,4.5c-2.7-0.7-4.2-3.7-3.2-6.3H8.1v7c0,0.9,0.7,1.6,1.6,1.6h10.5
		c0.9,0,1.6-0.7,1.6-1.6v-7h-2.6C19.5,103.8,19.7,104.4,19.7,105z"/>
	<path class="st1" d="M15,108c2.4,0,3.8-2.8,2.4-4.8c-1.2-1.6-3.7-1.6-4.9,0c-0.4,0.5-0.6,1.1-0.6,1.8C12,106.7,13.3,108,15,108z"/>
	<polygon class="st1" points="21.6,101.4 21.6,98.8 21.6,98.5 21.2,98.5 18.7,98.5 18.7,101.4 	"/>
</g>
</svg>
