<?xml version="1.0" encoding="utf-8"?>
<!-- Generator: Adobe Illustrator 22.1.0, SVG Export Plug-In . SVG Version: 6.00 Build 0)  -->
<svg version="1.1" xmlns="http://www.w3.org/2000/svg" xmlns:xlink="http://www.w3.org/1999/xlink" x="0px" y="0px"
	 viewBox="0 0 50.4 60" style="enable-background:new 0 0 50.4 60;" xml:space="preserve">
<style type="text/css">
	.st0{fill:#8AC43F;}
</style>
<g id="图层_1">
	<g id="Layer_1">
	</g>
</g>
<g id="Ebene_1">
</g>
<g id="Capa_1">
	<g>
		<g>
			<path class="st0" d="M50.3,15.5c0-1.6,0.1-3.2-0.1-4.8c-0.1-1.3-1-1.9-2.2-1.9c-2.8-0.1-5.6-0.3-8.3-0.9c-5-1.2-9.4-3.7-13.1-7.2
				c-0.9-0.9-2-0.9-2.9,0c-3.7,3.6-8.1,6.1-13.1,7.2C8,8.5,5.2,8.7,2.5,8.8c-1.2,0-2.2,0.4-2.4,1.8c-0.2,1.6,0,3.3-0.1,5
				c-0.3,15.1-0.7,35.7,24.4,44.4c0.3,0.1,1,0.2,1.4,0C51,51.2,50.6,30.6,50.3,15.5z M25.2,57.9c-24-8.2-23-29.1-22.8-44.2
				c0-0.9,0-1.8,0-2.7c8.4-0.4,17.1-3,22.8-8.1c5.8,5,14.3,7.8,22.7,8.2c0,0.9-0.1,2.9,0,3.8C48.2,30.1,49.4,49.8,25.2,57.9z"/>
			<path class="st0" d="M33,22.2c-2.1,2.1-4.1,4.1-6.2,6.2c-1.1,1.1-2.3,2.3-3.4,3.4c-0.2,0.2-0.4,0.5-0.6,0.6
				c-0.7,0.4-1.2-0.2-1.7-0.7c-1.2-1.2-2.5-2.4-3.7-3.6c-1.6-1.6-4.1,0.5-2.6,2.3c0.5,0.6,1.1,1.1,1.6,1.6c1.5,1.5,3,3,4.4,4.4
				c0.4,0.4,0.9,1.1,1.5,1.1c0.6,0,1.1-0.7,1.5-1.1c3.8-3.8,7.7-7.6,11.5-11.5c0.4-0.4,0.7-0.8,0.8-1.4C36.4,21.6,34.2,21.1,33,22.2
				z"/>
		</g>
	</g>
</g>
</svg>
