<?xml version="1.0" encoding="utf-8"?>
<!-- Generator: Adobe Illustrator 22.1.0, SVG Export Plug-In . SVG Version: 6.00 Build 0)  -->
<svg version="1.1" id="Layer_1" xmlns="http://www.w3.org/2000/svg" xmlns:xlink="http://www.w3.org/1999/xlink" x="0px" y="0px"
	 viewBox="0 0 30 30" enable-background="new 0 0 30 30" xml:space="preserve">
<g id="Layer_1_2_">
	<g id="Layer_1_1_">
	</g>
</g>
<g id="Isolation_Mode">
</g>
<g id="_x34_">
</g>
<g>
	<g>
		<g>
			<path fill="#FFFFFF" d="M9.787,12.578c0.696,0,1.261-0.56,1.261-1.25V6.453c0-2.165,1.833-3.953,3.988-3.953
				s3.988,1.788,3.988,3.953v4.875c0,1.614,2.522,1.614,2.522,0V6.453c0-3.535-2.992-6.453-6.51-6.453S8.527,2.918,8.527,6.453
				v4.875C8.526,12.018,9.091,12.578,9.787,12.578z"/>
			<path fill="#FFFFFF" d="M29.501,9.769h-6.694v1.559c0,3.225-5.044,3.232-5.044,0V9.769H12.31v1.559c0,3.225-5.044,3.232-5.044,0
				V9.769H0.498c-0.348,0-0.563,0.272-0.48,0.607L4.43,28.187C4.696,29.189,5.758,30,6.803,30h16.393
				c1.045,0,2.107-0.812,2.375-1.813l4.411-17.811C30.065,10.041,29.85,9.769,29.501,9.769z"/>
		</g>
	</g>
</g>
<g>
	<g opacity="0.5">
		<path fill="#8AC43F" d="M16.991,14.234C18.916,17.6,18.072,22.08,15,24.463C13.075,21.097,13.919,16.617,16.991,14.234z"/>
	</g>
	<g opacity="0.5">
		<path fill="#8AC43F" d="M23.488,18.668C22.531,22.395,18.848,25,15,24.463C15.957,20.736,19.64,18.131,23.488,18.668z"/>
	</g>
	<g opacity="0.5">
		<path fill="#8AC43F" d="M20.669,15.791c0.513,3.828-1.914,7.664-5.671,8.672C14.484,20.635,16.912,16.798,20.669,15.791z"/>
	</g>
	<g opacity="0.5">
		<path fill="#8AC43F" d="M25.013,22.428c-2.296,3.09-6.69,4.018-10.013,2.035C17.297,21.372,21.69,20.445,25.013,22.428z"/>
	</g>
	<g opacity="0.5">
		<path fill="#8AC43F" d="M4.987,22.429c2.297,3.09,6.691,4.017,10.013,2.034C12.703,21.373,8.309,20.446,4.987,22.429z"/>
	</g>
	<g opacity="0.5">
		<path fill="#8AC43F" d="M9.328,15.792C8.815,19.62,11.243,23.456,15,24.463C15.513,20.635,13.085,16.799,9.328,15.792z"/>
	</g>
	<g opacity="0.5">
		<path fill="#8AC43F" d="M13.01,14.235c-1.925,3.367-1.08,7.846,1.992,10.229C16.928,21.097,16.082,16.617,13.01,14.235z"/>
	</g>
	<g opacity="0.5">
		<path fill="#8AC43F" d="M6.511,18.669c0.958,3.727,4.641,6.332,8.489,5.794C14.042,20.736,10.359,18.131,6.511,18.669z"/>
	</g>
</g>
</svg>
