<?xml version="1.0" encoding="utf-8"?>
<!-- Generator: Adobe Illustrator 22.1.0, SVG Export Plug-In . SVG Version: 6.00 Build 0)  -->
<svg version="1.1" id="Layer_1" xmlns="http://www.w3.org/2000/svg" xmlns:xlink="http://www.w3.org/1999/xlink" x="0px" y="0px"
	 viewBox="0 0 29.7 30" style="enable-background:new 0 0 29.7 30;" xml:space="preserve">
<style type="text/css">
	.st0{fill:#8AC43F;}
	.st1{opacity:0.5;}
	.st2{fill:#FFFFFF;}
</style>
<g id="Layer_1_2_">
	<g id="Layer_1_1_">
	</g>
</g>
<g id="Isolation_Mode">
</g>
<g id="_x34_">
</g>
<g>
	<g>
		<g>
			<path class="st0" d="M9.7,12.6c0.7,0,1.3-0.6,1.3-1.3V6.5c0-2.2,1.8-4,4-4s4,1.8,4,4v4.9c0,1.6,2.5,1.6,2.5,0V6.5
				c0-3.5-2.9-6.5-6.5-6.5S8.5,2.9,8.5,6.5v4.9C8.5,12,9,12.6,9.7,12.6z"/>
			<path class="st0" d="M29.2,9.8h-6.6v1.6c0,3.2-5,3.2-5,0V9.8h-5.4v1.6c0,3.2-5,3.2-5,0V9.8H0.5C0.1,9.8-0.1,10,0,10.4l4.4,17.8
				c0.3,1,1.3,1.8,2.4,1.8H23c1,0,2.1-0.8,2.4-1.8l4.4-17.8C29.8,10,29.6,9.8,29.2,9.8z"/>
		</g>
	</g>
</g>
<g>
	<g class="st1">
		<path class="st2" d="M16.8,14.2c1.9,3.4,1.1,7.8-2,10.2C13,21.1,13.8,16.6,16.8,14.2z"/>
	</g>
	<g class="st1">
		<path class="st2" d="M23.3,18.7c-0.9,3.7-4.6,6.3-8.4,5.8C15.8,20.8,19.4,18.1,23.3,18.7z"/>
	</g>
	<g class="st1">
		<path class="st2" d="M20.5,15.8c0.5,3.8-1.9,7.7-5.6,8.7C14.4,20.7,16.7,16.8,20.5,15.8z"/>
	</g>
	<g class="st1">
		<path class="st2" d="M24.8,22.4c-2.3,3.1-6.6,4-9.9,2C17.1,21.4,21.5,20.4,24.8,22.4z"/>
	</g>
	<g class="st1">
		<path class="st2" d="M4.9,22.4c2.3,3.1,6.6,4,9.9,2C12.6,21.4,8.2,20.4,4.9,22.4z"/>
	</g>
	<g class="st1">
		<path class="st2" d="M9.2,15.8c-0.5,3.8,1.9,7.7,5.6,8.7C15.4,20.7,13,16.8,9.2,15.8z"/>
	</g>
	<g class="st1">
		<path class="st2" d="M12.9,14.2c-1.9,3.4-1.1,7.8,2,10.2C16.8,21.1,16,16.6,12.9,14.2z"/>
	</g>
	<g class="st1">
		<path class="st2" d="M6.5,18.7c0.9,3.7,4.6,6.3,8.4,5.8C13.9,20.8,10.3,18.1,6.5,18.7z"/>
	</g>
</g>
</svg>
