<?xml version="1.0" encoding="utf-8"?>
<!-- Generator: Adobe Illustrator 22.1.0, SVG Export Plug-In . SVG Version: 6.00 Build 0)  -->
<svg version="1.1" xmlns="http://www.w3.org/2000/svg" xmlns:xlink="http://www.w3.org/1999/xlink" x="0px" y="0px"
	 viewBox="0 0 25 20" enable-background="new 0 0 25 20" xml:space="preserve">
<g id="Layer_1">
	<g id="Layer_1_2_">
		<g id="Layer_1_1_">
		</g>
	</g>
	<g id="Isolation_Mode">
	</g>
</g>
<g id="_x38_">
	<g id="Forma_1_2_">
		<g>
			<path fill-rule="evenodd" clip-rule="evenodd" fill="#FFFFFF" d="M2.4,6.165c2.161,1.553,4.351,3.067,6.515,4.616
				c0.093,0.066,0.291,0.211,0.593,0.433c0.302,0.223,0.553,0.403,0.753,0.54c0.2,0.137,0.442,0.291,0.726,0.461
				c0.284,0.17,0.551,0.298,0.802,0.383c0.482,0.164,0.94,0.164,1.423,0c0.251-0.085,0.519-0.213,0.802-0.383
				c0.284-0.171,0.525-0.324,0.725-0.461c0.2-0.137,0.451-0.317,0.753-0.54c0.302-0.223,0.5-0.367,0.593-0.433
				c0.856-0.606,3.032-2.145,6.529-4.617c0.679-0.483,1.246-1.065,1.702-1.747c0.74-1.106,1.047-2.716,0.021-3.75
				C23.487-0.189,22.217,0,21.116,0H4.242c-1.148,0-2.87-0.274-3.663,0.738c-0.915,1.167-0.633,2.668,0.188,3.786
				C1.279,5.22,1.823,5.767,2.4,6.165z M25,16.554V6.449c-0.4,0.454-0.865,0.867-1.395,1.236c-3.05,2.102-5.366,3.736-6.947,4.901
				c-0.53,0.398-0.96,0.708-1.29,0.93c-0.33,0.223-0.77,0.45-1.318,0.682c-1.042,0.441-2.055,0.441-3.097,0
				c-0.549-0.232-0.988-0.459-1.318-0.682c-0.33-0.222-0.76-0.533-1.29-0.93c-1.256-0.937-3.567-2.571-6.934-4.901
				c-0.53-0.36-1-0.772-1.409-1.236v10.105c0,0.989-0.108,2.001,0.656,2.778C1.491,20.183,2.743,20,3.828,20h16.804
				c1.191,0,2.801,0.261,3.712-0.668C25.108,18.555,25,17.543,25,16.554z"/>
		</g>
	</g>
</g>
</svg>
