<?xml version="1.0" encoding="utf-8"?>
<!-- Generator: Adobe Illustrator 22.1.0, SVG Export Plug-In . SVG Version: 6.00 Build 0)  -->
<svg version="1.1" id="Layer_1" xmlns="http://www.w3.org/2000/svg" xmlns:xlink="http://www.w3.org/1999/xlink" x="0px" y="0px"
	 viewBox="0 0 110 80" style="enable-background:new 0 0 110 80;" xml:space="preserve">
<style type="text/css">
	.st0{fill:#8AC43F;}
	.st1{opacity:0.5;fill:#8AC43F;enable-background:new    ;}
</style>
<g>
	<g>
		<path class="st0" d="M16.3,78.5c1.3-0.5,2.3-1.4,2.6-2.8l-3.2-7.2h2.2l2,5.2l1.8-5.2h2.1l-3.2,7.9c-0.4,1-0.9,1.7-1.4,2.3
			c-0.6,0.5-1.4,1-2.4,1.3L16.3,78.5z"/>
		<path class="st0" d="M31.4,76.1c-0.6-0.3-1-0.8-1.3-1.4c-0.6-1.3-0.6-2.9,0-4.2c0.3-0.6,0.8-1.1,1.3-1.4c1.2-0.7,2.9-0.7,4.1,0
			c0.6,0.3,1,0.8,1.3,1.4c0.6,1.3,0.6,2.9,0,4.2c-0.3,0.6-0.8,1.1-1.3,1.4C34.3,76.9,32.6,76.8,31.4,76.1z M34.9,74.5
			c0.7-0.9,0.7-2.5,0.1-3.5c-0.6-1.1-2.3-1.2-3.1-0.2c-0.7,1-0.8,2.6-0.1,3.6C32.6,75.3,34.2,75.5,34.9,74.5z"/>
		<path class="st0" d="M43.6,78.5c1.3-0.5,2.3-1.4,2.6-2.8L43,68.6h2.2l2,5.2l1.8-5.2h2.1L48,76.4c-0.4,1-0.9,1.7-1.4,2.3
			c-0.6,0.5-1.4,1-2.4,1.3L43.6,78.5z"/>
		<path class="st0" d="M58.7,76.1c-0.6-0.3-1-0.8-1.3-1.4c-0.6-1.3-0.6-2.9,0-4.2c0.3-0.6,0.8-1.1,1.3-1.4c1.2-0.7,2.9-0.7,4.1,0
			c0.6,0.3,1,0.8,1.3,1.4c0.6,1.3,0.6,2.9,0,4.2c-0.3,0.6-0.8,1.1-1.3,1.4C61.6,76.9,59.9,76.8,58.7,76.1z M62.2,74.5
			c0.7-0.9,0.7-2.5,0.1-3.5c-0.6-1.1-2.3-1.2-3.1-0.2c-0.7,1-0.8,2.6-0.1,3.6C59.9,75.3,61.5,75.5,62.2,74.5z"/>
		<path class="st0" d="M72.3,79.3l0.6-1.4c0.9,0.5,2.2,0.7,3.2,0.3c1-0.4,1.2-1.3,1.2-2.3v-0.6c-0.3,0.3-0.6,0.6-1,0.8
			c-4,1.9-6.3-3.9-3.9-6.6c1.4-1.5,3.8-1.3,5.1,0.2c0-0.5,0.2-0.9,0.5-1.3l1.5,0.6c-0.1,0.2-0.2,0.5-0.3,0.7c-0.1,0.3-0.1,0.6-0.1,1
			v5.1c0,1.3-0.4,2.3-1.1,3C76.5,80.4,74,80.2,72.3,79.3z M76.7,74.3c0.4-0.5,0.5-1,0.5-1.7v-0.3c0-0.7-0.2-1.2-0.5-1.7
			c-0.7-0.8-2.3-0.9-3,0s-0.7,2.7-0.1,3.6C74.4,75.3,76,75.3,76.7,74.3z"/>
		<path class="st0" d="M87.9,76.2c-2.3-1.4-2.2-5.7,0.1-7.1c1.3-0.8,3.2-0.7,4.2,0.6v-0.9H94v5.7c0,0.4,0,0.7,0.1,1s0.2,0.5,0.3,0.7
			l-1.5,0.6c-0.3-0.3-0.5-0.7-0.5-1.2l0,0c-0.3,0.4-0.7,0.7-1.1,0.9C90.1,76.8,88.8,76.7,87.9,76.2z M91.5,74.5
			c0.4-0.4,0.5-1,0.5-1.7v-0.4c0-1.7-2.1-3.4-3.4-1.6c-0.7,1-0.8,2.8,0,3.8C89.3,75.4,90.9,75.4,91.5,74.5z"/>
	</g>
	<g>
		<path class="st1" d="M65.9,0c3.9,6.8,5.8,14.8,5.8,22.7C71.6,33,67.8,43,61.2,50.9c-1.9,2.2-3.9,4.2-6.2,6
			c-3.9-6.8-5.8-14.8-5.8-22.7C49.4,23.9,53.1,13.9,59.7,6C61.6,3.8,63.7,1.8,65.9,0z"/>
		<path class="st1" d="M101.6,24.7C100,31,97,36.9,92.9,42C86,50.3,76,55.8,65.2,57c-3.4,0.4-6.8,0.4-10.2-0.1
			c1.6-6.3,4.7-12.3,8.8-17.3c6.9-8.4,16.9-13.9,27.7-15C94.8,24.2,98.3,24.2,101.6,24.7z"/>
		<path class="st1" d="M86.1,8.7c1.1,8-0.1,16.4-3.3,23.8c-4,9.2-11.1,16.8-20,21.4c-2.5,1.3-5.1,2.3-7.8,3
			c-1.1-8,0.1-16.4,3.3-23.8c4-9.2,11.1-16.8,20-21.4C80.8,10.4,83.4,9.4,86.1,8.7z"/>
		<path class="st1" d="M110,45.6c-3.9,5.3-9.1,9.7-14.9,12.7c-9.5,4.9-20.7,5.8-30.9,2.7c-3.2-1-6.3-2.3-9.2-4.1
			c3.9-5.3,9.1-9.7,14.9-12.7c9.5-4.9,20.7-5.8,30.9-2.7C104,42.5,107.1,43.8,110,45.6z"/>
		<path class="st1" d="M0,45.6c3.9,5.3,9.1,9.7,14.9,12.7c9.5,4.9,20.7,5.8,30.9,2.7c3.2-1,6.3-2.3,9.2-4.1
			c-3.9-5.3-9.1-9.7-14.9-12.7c-9.5-4.9-20.7-5.8-30.9-2.7C6,42.5,2.9,43.8,0,45.6z"/>
		<path class="st1" d="M23.8,8.7c-1.1,8,0.1,16.4,3.3,23.8c4,9.2,11.1,16.8,20,21.4c2.5,1.3,5.1,2.3,7.8,3c1.1-8-0.1-16.4-3.3-23.8
			c-4-9.2-11.1-16.8-20-21.4C29.2,10.4,26.5,9.4,23.8,8.7z"/>
		<path class="st1" d="M44.1,0c-3.9,6.8-5.8,14.8-5.8,22.7C38.4,33,42.2,43,48.8,50.9c1.9,2.2,3.9,4.2,6.2,6
			c3.9-6.8,5.8-14.8,5.8-22.7C60.7,23.9,56.9,13.9,50.3,6C48.4,3.8,46.3,1.8,44.1,0z"/>
		<path class="st1" d="M8.4,24.7C10,31,13,36.9,17.1,42C24,50.4,34,55.8,44.8,57c3.4,0.4,6.8,0.4,10.2-0.1
			c-1.6-6.3-4.7-12.3-8.8-17.3c-6.9-8.4-16.9-13.8-27.7-15C15.2,24.2,11.7,24.2,8.4,24.7z"/>
	</g>
</g>
</svg>
