<?xml version="1.0" encoding="utf-8"?>
<!-- Generator: Adobe Illustrator 22.1.0, SVG Export Plug-In . SVG Version: 6.00 Build 0)  -->
<svg version="1.1" xmlns="http://www.w3.org/2000/svg" xmlns:xlink="http://www.w3.org/1999/xlink" x="0px" y="0px"
	 viewBox="0 0 22.2 25" style="enable-background:new 0 0 22.2 25;" xml:space="preserve">
<style type="text/css">
	.st0{fill:#8FDA5A;}
</style>
<g id="Layer_1">
</g>
<g id="_x35_">
	<g>
		<g>
			<path class="st0" d="M21.5,3.6h-5.2V2.7c0-1.5-1.2-2.7-2.7-2.7H8.6C7.1,0,5.9,1.2,5.9,2.7v0.8H0.7c-0.9,0-0.9,1.4,0,1.4h1.3v16.3
				c0,2,1.7,3.7,3.7,3.7h10.9c2,0,3.7-1.7,3.7-3.7V5h1.3C22.4,5,22.4,3.6,21.5,3.6z M7.3,2.7c0-0.8,0.6-1.4,1.4-1.4h4.9
				C14.3,1.4,15,2,15,2.7v0.8H7.3V2.7z M18.9,21.3c0,1.3-1,2.3-2.3,2.3H5.7c-1.3,0-2.3-1-2.3-2.3V5h15.6L18.9,21.3L18.9,21.3z"/>
			<path class="st0" d="M11.1,21.1c0.4,0,0.7-0.3,0.7-0.7V8.2c0-0.9-1.4-0.9-1.4,0v12.3C10.4,20.8,10.7,21.1,11.1,21.1z"/>
			<path class="st0" d="M6.6,20.4c0.4,0,0.7-0.3,0.7-0.7V8.9c0-0.9-1.4-0.9-1.4,0v10.7C5.9,20.1,6.2,20.4,6.6,20.4z"/>
			<path class="st0" d="M15.6,20.4c0.4,0,0.7-0.3,0.7-0.7V8.9C16.3,8,15,8,15,8.9v10.7C15,20.1,15.3,20.4,15.6,20.4z"/>
		</g>
	</g>
</g>
</svg>
